<svg width="1252" height="1252" viewBox="0 0 1252 1252" fill="none" xmlns="http://www.w3.org/2000/svg">
<g clip-path="url(#clip0_332_2)">
<path d="M189.678 589.118C179.898 598.901 174.404 612.167 174.404 626C174.404 639.833 179.898 653.099 189.678 662.882L484.785 957.989C489.597 962.971 495.353 966.945 501.718 969.679C508.082 972.413 514.928 973.852 521.854 973.913C528.781 973.973 535.65 972.653 542.061 970.03C548.473 967.407 554.297 963.533 559.195 958.635C564.093 953.737 567.967 947.913 570.59 941.502C573.213 935.091 574.533 928.221 574.472 921.295C574.412 914.368 572.973 907.523 570.239 901.158C567.505 894.794 563.531 889.037 558.548 884.225L352.49 678.167H1043.33C1057.17 678.167 1070.44 672.671 1080.22 662.887C1090 653.104 1095.5 639.835 1095.5 626C1095.5 612.165 1090 598.896 1080.22 589.113C1070.44 579.329 1057.17 573.833 1043.33 573.833H352.49L558.548 367.775C568.051 357.936 573.309 344.759 573.19 331.081C573.071 317.403 567.585 304.319 557.913 294.647C548.241 284.975 535.157 279.488 521.479 279.37C507.801 279.251 494.624 284.509 484.785 294.011L189.678 589.118Z" fill="black"/>
</g>
<defs>
<clipPath id="clip0_332_2">
<rect width="1252" height="1252" fill="white" transform="matrix(0 -1 1 0 0 1252)"/>
</clipPath>
</defs>
</svg>
