<svg width="873" height="873" viewBox="0 0 873 873" fill="none" xmlns="http://www.w3.org/2000/svg">
<path d="M691.125 254.625H582V218.25C582 179.661 566.671 142.653 539.384 115.366C512.098 88.0794 475.089 72.75 436.5 72.75C397.911 72.75 360.902 88.0794 333.616 115.366C306.329 142.653 291 179.661 291 218.25V254.625H181.875C172.228 254.625 162.976 258.457 156.154 265.279C149.332 272.101 145.5 281.353 145.5 291V691.125C145.5 720.067 156.997 747.823 177.462 768.288C197.927 788.753 225.683 800.25 254.625 800.25H618.375C647.317 800.25 675.073 788.753 695.538 768.288C716.003 747.823 727.5 720.067 727.5 691.125V291C727.5 281.353 723.668 272.101 716.846 265.279C710.024 258.457 700.772 254.625 691.125 254.625ZM363.75 218.25C363.75 198.955 371.415 180.451 385.058 166.808C398.701 153.165 417.205 145.5 436.5 145.5C455.795 145.5 474.299 153.165 487.942 166.808C501.585 180.451 509.25 198.955 509.25 218.25V254.625H363.75V218.25ZM654.75 691.125C654.75 700.772 650.918 710.024 644.096 716.846C637.274 723.668 628.022 727.5 618.375 727.5H254.625C244.978 727.5 235.726 723.668 228.904 716.846C222.082 710.024 218.25 700.772 218.25 691.125V327.375H291V363.75C291 373.397 294.832 382.649 301.654 389.471C308.476 396.293 317.728 400.125 327.375 400.125C337.022 400.125 346.274 396.293 353.096 389.471C359.918 382.649 363.75 373.397 363.75 363.75V327.375H509.25V363.75C509.25 373.397 513.082 382.649 519.904 389.471C526.726 396.293 535.978 400.125 545.625 400.125C555.272 400.125 564.524 396.293 571.346 389.471C578.168 382.649 582 373.397 582 363.75V327.375H654.75V691.125Z" fill="black"/>
</svg>
