<svg width="608" height="608" viewBox="0 0 608 608" fill="none" xmlns="http://www.w3.org/2000/svg">
<path d="M486 486C502.112 486 517.564 492.4 528.957 503.793C540.35 515.186 546.75 530.638 546.75 546.75C546.75 562.862 540.35 578.314 528.957 589.707C517.564 601.1 502.112 607.5 486 607.5C469.888 607.5 454.436 601.1 443.043 589.707C431.65 578.314 425.25 562.862 425.25 546.75C425.25 513.034 452.284 486 486 486ZM0 0H99.3262L127.879 60.75H577.125C585.181 60.75 592.907 63.9502 598.603 69.6466C604.3 75.3431 607.5 83.069 607.5 91.125C607.5 96.2888 605.981 101.453 603.855 106.312L495.112 302.839C484.785 321.368 464.738 334.125 441.956 334.125H215.663L188.325 383.636L187.414 387.281C187.414 389.295 188.214 391.227 189.638 392.651C191.062 394.075 192.994 394.875 195.008 394.875H546.75V455.625H182.25C166.138 455.625 150.686 449.225 139.293 437.832C127.9 426.439 121.5 410.987 121.5 394.875C121.5 384.244 124.234 374.22 128.79 365.715L170.1 291.296L60.75 60.75H0V0ZM182.25 486C198.362 486 213.814 492.4 225.207 503.793C236.6 515.186 243 530.638 243 546.75C243 562.862 236.6 578.314 225.207 589.707C213.814 601.1 198.362 607.5 182.25 607.5C166.138 607.5 150.686 601.1 139.293 589.707C127.9 578.314 121.5 562.862 121.5 546.75C121.5 513.034 148.534 486 182.25 486ZM455.625 273.375L540.068 121.5H156.127L227.812 273.375H455.625Z" fill="black"/>
</svg>
