<svg width="574" height="574" viewBox="0 0 574 574" fill="none" xmlns="http://www.w3.org/2000/svg">
<path d="M287 320.483L169.808 437.675C165.424 442.06 159.843 444.252 153.067 444.252C146.29 444.252 140.71 442.06 136.325 437.675C131.94 433.29 129.748 427.71 129.748 420.933C129.748 414.157 131.94 408.576 136.325 404.192L253.517 287L136.325 169.808C131.94 165.424 129.748 159.843 129.748 153.067C129.748 146.29 131.94 140.71 136.325 136.325C140.71 131.94 146.29 129.748 153.067 129.748C159.843 129.748 165.424 131.94 169.808 136.325L287 253.517L404.192 136.325C408.576 131.94 414.157 129.748 420.933 129.748C427.71 129.748 433.29 131.94 437.675 136.325C442.06 140.71 444.252 146.29 444.252 153.067C444.252 159.843 442.06 165.424 437.675 169.808L320.483 287L437.675 404.192C442.06 408.576 444.252 414.157 444.252 420.933C444.252 427.71 442.06 433.29 437.675 437.675C433.29 442.06 427.71 444.252 420.933 444.252C414.157 444.252 408.576 442.06 404.192 437.675L287 320.483Z" fill="black"/>
</svg>
