<svg width="500" height="500" viewBox="0 0 500 500" fill="none" xmlns="http://www.w3.org/2000/svg">
<path d="M145 0H355C435 0 500 65 500 145V355C500 393.456 484.723 430.338 457.53 457.53C430.338 484.723 393.456 500 355 500H145C65 500 0 435 0 355V145C0 106.544 15.2767 69.6623 42.4695 42.4695C69.6623 15.2767 106.544 0 145 0ZM140 50C116.131 50 93.2387 59.4821 76.3604 76.3604C59.4821 93.2387 50 116.131 50 140V360C50 409.75 90.25 450 140 450H360C383.869 450 406.761 440.518 423.64 423.64C440.518 406.761 450 383.869 450 360V140C450 90.25 409.75 50 360 50H140ZM381.25 87.5C389.538 87.5 397.487 90.7924 403.347 96.6529C409.208 102.513 412.5 110.462 412.5 118.75C412.5 127.038 409.208 134.987 403.347 140.847C397.487 146.708 389.538 150 381.25 150C372.962 150 365.013 146.708 359.153 140.847C353.292 134.987 350 127.038 350 118.75C350 110.462 353.292 102.513 359.153 96.6529C365.013 90.7924 372.962 87.5 381.25 87.5ZM250 125C283.152 125 314.946 138.17 338.388 161.612C361.83 185.054 375 216.848 375 250C375 283.152 361.83 314.946 338.388 338.388C314.946 361.83 283.152 375 250 375C216.848 375 185.054 361.83 161.612 338.388C138.17 314.946 125 283.152 125 250C125 216.848 138.17 185.054 161.612 161.612C185.054 138.17 216.848 125 250 125ZM250 175C230.109 175 211.032 182.902 196.967 196.967C182.902 211.032 175 230.109 175 250C175 269.891 182.902 288.968 196.967 303.033C211.032 317.098 230.109 325 250 325C269.891 325 288.968 317.098 303.033 303.033C317.098 288.968 325 269.891 325 250C325 230.109 317.098 211.032 303.033 196.967C288.968 182.902 269.891 175 250 175Z" fill="black"/>
</svg>
