<svg width="656" height="451" viewBox="0 0 656 451" fill="none" xmlns="http://www.w3.org/2000/svg">
<path d="M512.5 123H143.5C132.02 123 123 113.98 123 102.5C123 91.02 132.02 82 143.5 82H512.5C523.98 82 533 91.02 533 102.5C533 113.98 523.98 123 512.5 123ZM512.5 246H143.5C132.02 246 123 236.98 123 225.5C123 214.02 132.02 205 143.5 205H512.5C523.98 205 533 214.02 533 225.5C533 236.98 523.98 246 512.5 246ZM512.5 369H143.5C132.02 369 123 359.98 123 348.5C123 337.02 132.02 328 143.5 328H512.5C523.98 328 533 337.02 533 348.5C533 359.98 523.98 369 512.5 369Z" fill="black"/>
</svg>
