<svg width="302" height="302" viewBox="0 0 302 302" fill="none" xmlns="http://www.w3.org/2000/svg">
<path opacity="0.16" d="M76 189H226C245.759 189 264.708 196.849 278.68 210.82C292.651 224.792 300.5 243.741 300.5 263.5C300.5 273.313 296.602 282.724 289.663 289.663C282.724 296.602 273.313 300.5 263.5 300.5H38.5C28.687 300.5 19.2758 296.602 12.3369 289.663C5.39807 282.724 1.5 273.313 1.5 263.5C1.5 243.741 9.34885 224.792 23.3203 210.82C37.2918 196.849 56.2414 189 76 189Z" fill="black" stroke="black"/>
<path d="M1 263.5C1 243.609 8.90176 224.532 22.967 210.467C37.0322 196.402 56.1088 188.5 76 188.5H226C245.891 188.5 264.968 196.402 279.033 210.467C293.098 224.532 301 243.609 301 263.5C301 273.446 297.049 282.984 290.016 290.016C282.984 297.049 273.446 301 263.5 301H38.5C28.5544 301 19.0161 297.049 11.9835 290.016C4.95088 282.984 1 273.446 1 263.5Z" fill="black" stroke="black" stroke-width="2" stroke-linejoin="round"/>
<path d="M151 113.5C182.066 113.5 207.25 88.316 207.25 57.25C207.25 26.184 182.066 1 151 1C119.934 1 94.75 26.184 94.75 57.25C94.75 88.316 119.934 113.5 151 113.5Z" fill="black" stroke="black" stroke-width="2"/>
</svg>
