<svg width="783" height="783" viewBox="0 0 783 783" fill="none" xmlns="http://www.w3.org/2000/svg">
<path d="M289.521 579.042C208.604 579.042 140.128 551.01 84.0947 494.947C28.0613 438.884 0.029718 370.409 2.3567e-05 289.521C-0.0296709 208.633 28.0019 140.158 84.0947 84.0947C140.187 28.0316 208.663 0 289.521 0C370.379 0 438.869 28.0316 494.992 84.0947C551.114 140.158 579.131 208.633 579.042 289.521C579.042 322.185 573.845 352.993 563.452 381.945C553.059 410.897 538.954 436.508 521.138 458.779L770.571 708.213C778.737 716.378 782.82 726.772 782.82 739.392C782.82 752.012 778.737 762.405 770.571 770.571C762.405 778.737 752.012 782.82 739.392 782.82C726.772 782.82 716.378 778.737 708.213 770.571L458.779 521.138C436.508 538.954 410.897 553.059 381.945 563.452C352.993 573.845 322.185 579.042 289.521 579.042ZM289.521 489.958C345.198 489.958 392.531 470.479 431.52 431.52C470.509 392.561 489.988 345.228 489.958 289.521C489.929 233.814 470.449 186.496 431.52 147.567C392.59 108.637 345.257 89.1427 289.521 89.0833C233.784 89.0239 186.466 108.518 147.567 147.567C108.667 186.615 89.1724 233.933 89.0834 289.521C88.9943 345.109 108.489 392.442 147.567 431.52C186.644 470.598 233.963 490.077 289.521 489.958Z" fill="black"/>
</svg>
