<svg width="632" height="480" viewBox="0 0 632 480" fill="none" xmlns="http://www.w3.org/2000/svg">
<path d="M252.8 342.857L416.804 240L252.8 137.143V342.857ZM618.096 74.4C622.204 90.5143 625.048 112.114 626.944 139.543C629.156 166.971 630.104 190.629 630.104 211.2L632 240C632 315.086 626.944 370.286 618.096 405.6C610.196 436.457 591.868 456.343 563.428 464.914C548.576 469.371 521.4 472.457 479.688 474.514C438.608 476.914 401.004 477.943 366.244 477.943L316 480C183.596 480 101.12 474.514 68.572 464.914C40.132 456.343 21.804 436.457 13.904 405.6C9.796 389.486 6.952 367.886 5.056 340.457C2.844 313.029 1.896 289.371 1.896 268.8L0 240C0 164.914 5.056 109.714 13.904 74.4C21.804 43.5429 40.132 23.6571 68.572 15.0857C83.424 10.6286 110.6 7.54285 152.312 5.48571C193.392 3.08571 230.996 2.05714 265.756 2.05714L316 0C448.404 0 530.88 5.48572 563.428 15.0857C591.868 23.6571 610.196 43.5429 618.096 74.4Z" fill="black"/>
</svg>
